<?xml version="1.0" encoding="UTF-8" standalone="no"?>
<svg
   xmlns:dc="http://purl.org/dc/elements/1.1/"
   xmlns:cc="http://creativecommons.org/ns#"
   xmlns:rdf="http://www.w3.org/1999/02/22-rdf-syntax-ns#"
   xmlns:svg="http://www.w3.org/2000/svg"
   xmlns="http://www.w3.org/2000/svg"
   xmlns:sodipodi="http://sodipodi.sourceforge.net/DTD/sodipodi-0.dtd"
   xmlns:inkscape="http://www.inkscape.org/namespaces/inkscape"
   viewBox="0 0 200.59434 35.000065"
   version="1.1"
   width="56.612507mm"
   height="9.8777781mm"
   id="svg2"
   inkscape:version="0.91 r13725"
   sodipodi:docname="yazlo.svg">
  <sodipodi:namedview
     pagecolor="#ffffff"
     bordercolor="#666666"
     borderopacity="1"
     objecttolerance="10"
     gridtolerance="10"
     guidetolerance="10"
     inkscape:pageopacity="0"
     inkscape:pageshadow="2"
     inkscape:window-width="1375"
     inkscape:window-height="876"
     id="namedview14"
     showgrid="false"
     showborder="false"
     fit-margin-top="0"
     fit-margin-left="0"
     fit-margin-right="0"
     fit-margin-bottom="0"
     inkscape:zoom="1.4188257"
     inkscape:cx="82.442209"
     inkscape:cy="-65.846925"
     inkscape:window-x="65"
     inkscape:window-y="24"
     inkscape:window-maximized="1"
     inkscape:current-layer="svg2" />
  <defs
     id="defs9" />
  <metadata
     id="metadata7">
    <rdf:RDF>
      <cc:Work
         rdf:about="">
        <dc:format>image/svg+xml</dc:format>
        <dc:type
           rdf:resource="http://purl.org/dc/dcmitype/StillImage" />
        <dc:title></dc:title>
      </cc:Work>
    </rdf:RDF>
  </metadata>
  <g
     style="fill:#614381;fill-opacity:1"
     transform="matrix(0.01996642,0,0,0.01996642,24.874507,5.0083768)"
     id="layer1">
    <path
       d="m 150.18,-250.84 c -213.02,0.16571 -413.75,96.483 -547.25,260.3 -27.957,-5.9493 -56.495,-9.0162 -85.168,-9.1074 l -0.13476,0 -0.13672,0 c -198.76,0.15914 -367.7,141.8 -406.68,332.26 -209.85002,64.57 -356.84002,259.66 -357.08002,482.88 l 0,0.0664 0,0.0645 c 0.218,261.8 201.66,480.84 462.05002,503.49 6.1832,1.1555 12.499,1.9707 19,1.9707 l 15.629,0 c 2.1236,0.1147 4.2462,0.2307 6.3711,0.3183 l 2.2207,0.092 2.2207,-0.053 c 3.3689,-0.078 6.735,-0.2118 10.102,-0.3574 l 464.64,0 a 100,100 0 0 1 -28.195,-69.594 100,100 0 0 1 26.762,-67.906 l -465.91,0 -1.6328,0.078 c -2.2786,0.1085 -4.5597,0.176 -6.8398,0.2422 -1.345,-0.064 -2.6909,-0.1242 -4.0352,-0.2031 l -2.0117,-0.1172 -14.607,0 -2.0742,-0.5918 -6.8476,-0.541 c -192.09,-15.192 -339.15002,-174.2 -339.34002,-366.88 0.2226,-175.28 122.94002,-325.4 294.68002,-360.47 l 50.576,-10.328 4.1914,-51.449 c 11.796,-144.81 131.47,-255.26 276.74,-255.46 30.512,0.10759 60.797,5.2328 89.643,15.178 l 48.811,16.828 29.77,-42.184 c 106.59,-151.04 279.7,-240.85 464.56,-241.02 139.01,0.18863 273.1,51.21 377.07,143.48 103.98,92.282 170.58,219.38 187.28,357.4 l 6.875,56.844 57.148,3.5195 c 194.77,12 345.46998,172.07 345.73998,367.2 -0.1567,198.75 -156.11998,360.48 -354.73998,367.85 l -5.5156,0.2051 -2.1504,0.4297 -480.85,0 a 100,100 0 0 1 26.717,67.906 100,100 0 0 1 -28.334,69.594 l 485.78,0 c 4.5278,0 8.9886,-0.3985 13.402,-0.9727 269.19998,-12.08 483.02998,-235.06 483.19998,-504.99 l 0,-0.0625 0,-0.0625 c -0.3,-247.57 -180.5,-456.33 -419.51998,-497.69 -30.1,-150.37 -108.31,-287.49 -223.74,-389.93 -129.07,-114.55 -295.65,-177.92 -468.22,-178.14 l -0.0703,0 -0.0684,0 z"
       style="color:#000000;text-indent:0;text-decoration:none;text-decoration-line:none;text-decoration-style:solid;text-decoration-color:#000000;text-transform:none;block-progression:tb;white-space:normal;isolation:auto;mix-blend-mode:normal;solid-color:#000000;fill:#614381;fill-opacity:1;color-rendering:auto;image-rendering:auto;shape-rendering:auto"
       id="rect4138"
       inkscape:connector-curvature="0" />
    <path
       style="fill:#614381;fill-opacity:1;stroke:#000000;stroke-width:0.73299998;stroke-linecap:square"
       d="m -138.83,1003.3 a 73.3,73.3 0 0 0 -73.3,73.3 73.3,73.3 0 0 0 73.3,73.3 73.3,73.3 0 0 0 5.3028,-0.1975 c 0.9771,0.1259 1.9725,0.1975 2.9849,0.1975 l 276.62,0 c 1.1434,0 2.2667,-0.086 3.3644,-0.2462 a 73.3,73.3 0 0 0 4.9234,0.2462 73.3,73.3 0 0 0 73.3,-73.3 73.3,73.3 0 0 0 -73.3,-73.3 73.3,73.3 0 0 0 -5.3,0.199 c -0.978,-0.1262 -1.9743,-0.199 -2.9878,-0.199 l -276.62,0 c -1.1448,0 -2.2696,0.086 -3.3686,0.2462 A 73.3,73.3 0 0 0 -138.83,1003.3 Z m 0,175.92 a 73.3,73.3 0 0 0 -73.3,73.3 73.3,73.3 0 0 0 73.3,73.3 73.3,73.3 0 0 0 5.3028,-0.1976 c 0.9771,0.1259 1.9725,0.1976 2.9849,0.1976 l 276.62,0 c 1.1434,0 2.2667,-0.086 3.3644,-0.2463 a 73.3,73.3 0 0 0 4.9234,0.2463 73.3,73.3 0 0 0 73.3,-73.3 73.3,73.3 0 0 0 -73.3,-73.3 73.3,73.3 0 0 0 -5.3,0.199 c -0.978,-0.1261 -1.9743,-0.199 -2.9878,-0.199 l -276.62,0 c -1.1448,0 -2.2696,0.086 -3.3686,0.2463 a 73.3,73.3 0 0 0 -4.9191,-0.2463 z m 0,175.92 a 73.3,73.3 0 0 0 -73.3,73.3 73.3,73.3 0 0 0 73.3,73.3 73.3,73.3 0 0 0 5.3028,-0.1976 c 0.9771,0.1259 1.9725,0.1976 2.9849,0.1976 l 276.62,0 c 1.1434,0 2.2667,-0.086 3.3644,-0.2462 a 73.3,73.3 0 0 0 4.9234,0.2462 73.3,73.3 0 0 0 73.3,-73.3 73.3,73.3 0 0 0 -73.3,-73.3 73.3,73.3 0 0 0 -5.3,0.1989 c -0.978,-0.1261 -1.9743,-0.1989 -2.9878,-0.1989 l -276.62,0 c -1.1448,0 -2.2696,0.086 -3.3686,0.2462 a 73.3,73.3 0 0 0 -4.9191,-0.2462 z"
       id="path4202"
       inkscape:connector-curvature="0" />
  </g>
  <g
     transform="matrix(0.08346255,0,0,0.08346255,-0.00819779,1.67928e-5)"
     id="text4135"
     style="font-style:normal;font-weight:normal;font-size:454.19573975px;line-height:125%;font-family:sans-serif;letter-spacing:10.00001907px;word-spacing:0px;fill:#614381;fill-opacity:1;stroke:none;stroke-width:1px;stroke-linecap:butt;stroke-linejoin:miter;stroke-opacity:1">
    <path
       id="path4142"
       style="font-style:normal;font-variant:normal;font-weight:normal;font-stretch:normal;font-family:'Arial Black';-inkscape-font-specification:'Arial Black, ';letter-spacing:25.00004768px;opacity:1;fill:#614381;fill-opacity:1"
       d="m 658.72785,41.983787 111.55296,0 65.64548,109.778753 65.64548,-109.778753 110.88763,0 -126.4119,188.952523 0,136.17001 -100.68597,0 0,-136.17001 L 658.72785,41.983787 Z"
       inkscape:connector-curvature="0" />
    <path
       id="path4144"
       style="font-style:normal;font-variant:normal;font-weight:normal;font-stretch:normal;font-family:'Arial Black';-inkscape-font-specification:'Arial Black, ';letter-spacing:25.00004768px;opacity:1;fill:#614381;fill-opacity:1"
       d="m 1227.0773,313.43671 -114.436,0 -15.7461,53.66961 -102.68194,0 122.19814,-325.122533 109.557,0 122.1982,325.122533 -105.1215,0 -15.9678,-53.66961 z m -21.0687,-70.30276 -35.9276,-116.87556 -35.7058,116.87556 71.6334,0 z"
       inkscape:connector-curvature="0" />
    <path
       id="path4146"
       style="font-style:normal;font-variant:normal;font-weight:normal;font-stretch:normal;font-family:'Arial Black';-inkscape-font-specification:'Arial Black, ';letter-spacing:25.00004768px;opacity:1;fill:#614381;fill-opacity:1"
       d="m 1396.8966,41.983787 284.3159,0 0,64.980153 -182.2993,190.28318 188.9525,0 0,69.8592 -308.4893,0 0,-67.41968 180.3032,-188.2872 -162.783,0 0,-69.415653 z"
       inkscape:connector-curvature="0" />
    <path
       id="path4148"
       style="font-style:normal;font-variant:normal;font-weight:normal;font-stretch:normal;font-family:'Arial Black';-inkscape-font-specification:'Arial Black, ';letter-spacing:25.00004768px;opacity:1;fill:#614381;fill-opacity:1"
       d="m 1758.3296,41.983787 100.4642,0 0,245.061663 156.7951,0 0,80.06087 -257.2593,0 0,-325.122533 z"
       inkscape:connector-curvature="0" />
    <path
       id="path4150"
       style="font-style:normal;font-variant:normal;font-weight:normal;font-stretch:normal;font-family:'Arial Black';-inkscape-font-specification:'Arial Black, ';letter-spacing:25.00004768px;opacity:1;fill:#614381;fill-opacity:1"
       d="m 2066.5367,204.76683 q 0,-79.61732 44.3551,-123.972372 44.355,-44.355053 123.5288,-44.355053 81.1697,0 125.0812,43.689727 43.9115,43.467948 43.9115,121.976398 0,56.99624 -19.2944,93.58916 -19.0727,36.37114 -55.4438,56.77447 -36.1494,20.18154 -90.2626,20.18154 -55.0002,0 -91.1496,-17.52024 -35.9276,-17.52025 -58.3269,-55.44382 -22.3993,-37.92357 -22.3993,-94.91981 z m 100.4642,0.44355 q 0,49.23411 18.1856,70.74631 18.4073,21.5122 49.8994,21.5122 32.3792,0 50.1212,-21.06865 17.7421,-21.06865 17.7421,-75.62536 0,-45.90748 -18.6292,-66.97613 -18.4073,-21.29043 -50.1212,-21.29043 -30.3832,0 -48.7905,21.5122 -18.4074,21.5122 -18.4074,71.18986 z"
       inkscape:connector-curvature="0" />
  </g>
</svg>
